<?xml version="1.0" encoding="UTF-8" standalone="no"?>
<svg
   xmlns="http://www.w3.org/2000/svg"
   xmlns:svg="http://www.w3.org/2000/svg"
   xmlns:wapama="http://www.wapama.net/diagram"
   xmlns:xlink="http://www.w3.org/1999/xlink"
   width="102"
   height="82"
   version="1.0">
	
  <defs></defs>
  
  <wapama:magnets>
  	<wapama:magnet 
  		wapama:cx="0" 
  		wapama:cy="40" 
  		wapama:anchors="left" />
  	<wapama:magnet 
  		wapama:cx="50" 
  		wapama:cy="80" 
  		wapama:anchors="bottom" />
  	<wapama:magnet 
  		wapama:cx="100" 
  		wapama:cy="40" 
  		wapama:anchors="right" />
  	<wapama:magnet 
  		wapama:cx="50" 
  		wapama:cy="0" 
  		wapama:anchors="top" />
  	<wapama:magnet 
  		wapama:cx="50" 
  		wapama:cy="40" 
  		wapama:default="yes" />
  </wapama:magnets>
  
  <g 
  	pointer-events="fill" 
    wapama:minimumSize="50 40" 
    wapama:maximumSize="200 160" >
    <rect 
    	id="mainBody" 
    	wapama:resize="vertical horizontal" 
    	x="0" 
    	y="0" 
    	width="100" 
    	height="80" 
    	rx="10" 
    	ry="10" 
    	stroke="black" 
    	stroke-width="1" 
    	fill="white" />
    
    <g id="documentation"
	   pointer-events="fill">
    	
    	<rect 
    		x="76" 
    		y="56" 
    		width="16" 
    		height="16" 
    		stroke="black" 
    		stroke-width="1" 
    		fill="none" />
    	<path 
    		d="	M 78 58 L 90 58
    			M 78 62 L 90 62
    			M 78 66 L 90 66
    			M 78 70 L 90 70" 
    		fill="none" 
    		stroke="black" />
  	</g>
  		
    <circle 
    	wapama:resize="vertical horizontal" 
    	cx="16" 
    	cy="16" 
    	r="12" 
    	stroke="black" 
    	fill="none" 
    	stroke-width="1"/>
    <circle 
    	wapama:resize="vertical horizontal" 
    	cx="16" 
    	cy="16" 
    	r="10" 
    	stroke="black" 
    	fill="none" 
    	stroke-width="1"/>
    <path 
    	wapama:resize="vertical horizontal" 
    	d="	M 16 6 L 16 9
    		M 21 7 L 19.5 10
    		M 25 11 L 22 12.5
    		M 26 16 L 23 16
    		M 25 21 L 22 19.5
    		M 21 25 L 19.5 22
    		M 16 26 L 16 23
    		M 11 25 L 12.5 22
    		M 7 21 L 10 19.5
    		M 6 16 L 9 16
    		M 7 11 L 10 12.5
    		M 11 7 L 12.5 10
    		M 18 9 L 16 16 L 20 16" 
    	fill="none" 
    	stroke="black"/>
    <text font-size="14" 
    	  id="label" 
    	  x="50" 
    	  y="40" 
    	  wapama:align="middle center" 
    	  stroke="black"></text>
  </g>
</svg>