<?xml version="1.0" encoding="UTF-8" standalone="no"?>
<svg
   xmlns="http://www.w3.org/2000/svg"
   xmlns:svg="http://www.w3.org/2000/svg"
   xmlns:wapama="http://www.wapama.net/diagram"
   xmlns:xlink="http://www.w3.org/1999/xlink"
   version="1.0">
  <defs></defs>
  <wapama:magnets>
  	<wapama:magnet wapama:cx="50" wapama:cy="40" wapama:default="yes"/>
  	<wapama:magnet wapama:cx="-16" wapama:cy="40" wapama:anchors="left" />
  	<wapama:magnet wapama:cx="116" wapama:cy="40" wapama:anchors="right" />
  	<wapama:magnet wapama:cx="0" wapama:cy="40" wapama:anchors="left" />
  	<wapama:magnet wapama:cx="50" wapama:cy="80" wapama:anchors="bottom" />
  	<wapama:magnet wapama:cx="100" wapama:cy="40" wapama:anchors="right" />
  	<wapama:magnet wapama:cx="50" wapama:cy="0" wapama:anchors="top" />
  </wapama:magnets>
  <g pointer-events="fill" wapama:minimumSize="132 80" wapama:maximumSize="396 240">
    <rect id="c" wapama:anchors="left right" wapama:resize="vertical horizontal" x="0" y="0" width="100" height="80" rx="10" ry="10" stroke="black" stroke-width="1" fill="white" />
 	<path wapama:anchors="bottom" fill="none" stroke="black" stroke-width="2" d="m47 70 v8 M52 70 v8" />
 	<g id="andjoin">
	    <path wapama:anchors="left" fill="white" stroke-width="1" stroke="black" d="M -16,40 L 0,56 L 16,40 L 0,24 z" />
	    <path wapama:anchors="left" fill="white" stroke-width="3" stroke="black" d="M -8,40 h 16 M 0,32 v 16" />
    </g>
    <g id="xorjoin">
	    <path wapama:anchors="left" fill="white" stroke-width="1" stroke="black" d="M -16,40 L 0,56 L 16,40 L 0,24 z" />
	    <path wapama:anchors="left" fill="white" stroke-width="3" stroke="black" d="M -6,34 l 12,12 M -6,46 l 12,-12" />
    </g>
    <g id="andsplit">
	    <path wapama:anchors="right" fill="white" stroke-width="1" stroke="black" d="M 84,40 L 100,56 L 116,40 L 100,24 z" />
	    <path wapama:anchors="right" fill="white" stroke-width="3" stroke="black" d="M 92,40 h 16 M 100,32 v 16" />
    </g>
    <g id="xorsplit">
	    <path wapama:anchors="right" fill="white" stroke-width="1" stroke="black" d="M 84,40 L 100,56 L 116,40 L 100,24 z" />
	    <path wapama:anchors="right" fill="white" stroke-width="3" stroke="black" d="M 94,34 l 12,12 M 94,46 l 12,-12" />
    </g>
    
    <image id="enabled" 	x="2" y="2" width="16" height="16" wapama:anchors="left top" xlink:href="images/hourglass_go.png"/>
 	<image id="reopened" 	x="2" y="2" width="16" height="16" wapama:anchors="left top" xlink:href="images/hourglass_go.png"/>
 	<image id="ready" 		x="2" y="2" width="16" height="16" wapama:anchors="left top" xlink:href="images/bullet_go.png" />
 	<image id="skipped" 	x="2" y="2" width="16" height="16" wapama:anchors="left top" xlink:href="images/cancel.png" />
 	<image id="completed" 	x="2" y="2" width="16" height="16" wapama:anchors="left top" xlink:href="images/tick.png" />
 	
    <text font-size="14" id="t" x="50" y="40" wapama:align="middle center"></text>
  </g>
</svg>