<?xml version="1.0" encoding="UTF-8" standalone="no"?>
<svg
   xmlns="http://www.w3.org/2000/svg"
   xmlns:svg="http://www.w3.org/2000/svg"
   xmlns:wapama="http://www.wapama.net/diagram"
   xmlns:xlink="http://www.w3.org/1999/xlink"
   width="102"
   height="82"
   version="1.0">
	
  <defs></defs>
  
  <wapama:magnets>
  	<wapama:magnet 
  		wapama:cx="0" 
  		wapama:cy="40" 
  		wapama:anchors="left" />
  	<wapama:magnet 
  		wapama:cx="50" 
  		wapama:cy="80" 
  		wapama:anchors="bottom" />
  	<wapama:magnet 
  		wapama:cx="100" 
  		wapama:cy="40" 
  		wapama:anchors="right" />
  	<wapama:magnet 
  		wapama:cx="50" 
  		wapama:cy="0" 
  		wapama:anchors="top" />
  	<wapama:magnet 
  		wapama:cx="50" 
  		wapama:cy="40" 
  		wapama:default="yes" />
  </wapama:magnets>
  
  <g 
  	pointer-events="fill" 
    wapama:minimumSize="50 40" 
    wapama:maximumSize="200 160" >
    <rect 
    	id="mainBody" 
    	wapama:resize="vertical horizontal" 
    	x="0" 
    	y="0" 
    	width="100" 
    	height="80" 
    	rx="10" 
    	ry="10" 
    	stroke="black" 
    	stroke-width="1" 
    	fill="white" />
    
    <g id="documentation"
	   pointer-events="fill">	
    	<rect 
    		x="76" 
    		y="56" 
    		width="16" 
    		height="16" 
    		stroke="black" 
    		stroke-width="1" 
    		fill="none" />
    	<path 
    		d="	M 78 58 L 90 58
    			M 78 62 L 90 62
    			M 78 66 L 90 66
    			M 78 70 L 90 70" 
    		fill="none" 
    		stroke="black" />
  	</g>
  		
    <text font-size="9" 
    	  id="label" 
    	  x="50" 
    	  y="40" 
    	  wapama:align="middle center" 
    	  stroke="black"></text>
    <path	    
	     style="fill:none;fill-rule:evenodd;stroke:#000000;stroke-width:0.8503679px;stroke-linecap:butt;stroke-linejoin:miter;stroke-opacity:1"
	     d="M 17.612413,24.391516 C 19.547109,24.571596 21.624474,24.677506 22.447136,22.833466 C 23.257196,21.017656 20.891318,15.460286 25.049116,15.940876 C 20.711065,16.197736 23.330636,10.009936 22.451886,8.080686 C 21.646733,6.313016 19.726589,6.425906 17.915825,6.620716M 14.065388,6.608484 C 12.130692,6.428404 10.053326,6.322494 9.2306661,8.166534 C 8.4206001,9.982334 10.786482,15.539704 6.6286831,15.059114 C 10.966735,14.802254 8.3471671,20.990054 9.2259171,22.919314 C 10.031067,24.686984 11.951212,24.574094 13.761976,24.379284"
	     wapama:resize="vertical horizontal" />
    <polygon 
    	wapama:resize="vertical horizontal" 
    	stroke="black" 
    	fill="black" 
    	stroke-width="1" 
    	points="20,12 20,20 15,16 20,12 " 
    	stroke-linecap="butt" 
    	stroke-linejoin="miter" 
    	stroke-miterlimit="10" />
    <polygon 
    	wapama:resize="vertical horizontal" 
    	stroke="black" 
    	fill="black" 
    	stroke-width="1" 
    	points="15,12 15,20 10,16 15,12 " 
    	stroke-linecap="butt" 
    	stroke-linejoin="miter" 
    	stroke-miterlimit="10" />
  </g>
</svg>