<?xml version="1.0" encoding="UTF-8" standalone="no"?>
<svg
   xmlns="http://www.w3.org/2000/svg"
   xmlns:svg="http://www.w3.org/2000/svg"
   xmlns:wapama="http://www.wapama.net/diagram"
   xmlns:xlink="http://www.w3.org/1999/xlink"
   width="102"
   height="82"
   version="1.0">
	
  <defs></defs>
  
  <wapama:magnets>
  	<wapama:magnet 
  		wapama:cx="0" 
  		wapama:cy="40" 
  		wapama:anchors="left" />
  	<wapama:magnet 
  		wapama:cx="50" 
  		wapama:cy="80" 
  		wapama:anchors="bottom" />
  	<wapama:magnet 
  		wapama:cx="100" 
  		wapama:cy="40" 
  		wapama:anchors="right" />
  	<wapama:magnet 
  		wapama:cx="50" 
  		wapama:cy="0" 
  		wapama:anchors="top" />
  	<wapama:magnet 
  		wapama:cx="50" 
  		wapama:cy="40" 
  		wapama:default="yes" />
  </wapama:magnets>


  <g 
  	pointer-events="fill" 
    wapama:minimumSize="50 40">
    <rect 
    	id="mainBody" 
    	wapama:resize="vertical horizontal" 
    	x="0" 
    	y="0" 
    	width="100" 
    	height="80" 
    	rx="10" 
    	ry="10" 
    	stroke="black" 
    	stroke-width="1" 
    	fill="white" />
    
    <g id="documentation"
	   pointer-events="fill">

    	<rect 
    		x="76" 
    		y="56" 
    		width="16" 
    		height="16" 
    		stroke="black" 
    		stroke-width="1"
    		wapama:anchors="bottom right"
    		fill="none" />
    	<path 
    		d="	M 78 58 L 90 58
    			M 78 62 L 90 62
    			M 78 66 L 90 66
    			M 78 70 L 90 70" 
    		fill="none"
    		wapama:anchors="bottom right"
    		stroke="black" />
  	</g>
  		
    <path
       wapama:anchors="top left"
       d="M 16.31219,53.244217 
          C 16.37914,51.741592 17.61649,50.568329 19.09839,50.602315 
          C 20.58029,50.6363 21.76414,51.865091 21.76414,53.369251 
          L 19.03677,53.369251 
          L 16.31219,53.244217 
          z M 11.80815,54.191852 
          L 14.77965,54.059863 
          M 13.88597,48.881645 
          L 16.11559,51.302735 
          M 19.22312,49.465094 
          L 19.11586,45.808147 
          M 22.7165,51.867656 
          L 24.68381,49.123754 
          M 23.22033,54.052763 
          L 26.19185,53.920767"
       transform="translate(0,-38)"
       style="fill:none;fill-rule:evenodd;stroke:#000000;stroke-width:1.34357333px;stroke-linecap:butt;stroke-linejoin:miter;stroke-opacity:1" />
  	<text 
    	wapama:anchors="top left"
    	x="30" 
    	y="20" 
    	style="font-family:Arial; font-size: 10pt; fill:black;">onEvent</text>

  </g>
</svg> 