<?xml version="1.0" encoding="UTF-8" standalone="no"?>
<svg
   xmlns="http://www.w3.org/2000/svg"
   xmlns:svg="http://www.w3.org/2000/svg"
   xmlns:wapama="http://www.wapama.net/diagram"
   xmlns:xlink="http://www.w3.org/1999/xlink"
   width="102"
   height="82"
   version="1.0">
  <defs></defs>
  <wapama:magnets>
  	<wapama:magnet wapama:cx="0" wapama:cy="40" wapama:anchors="left" />
  	<wapama:magnet wapama:cx="50" wapama:cy="80" wapama:anchors="bottom" />
  	<wapama:magnet wapama:cx="100" wapama:cy="40" wapama:anchors="right" />
  	<wapama:magnet wapama:cx="50" wapama:cy="0" wapama:anchors="top" />
  	<wapama:magnet wapama:cx="50" wapama:cy="40" wapama:default="yes" />
  </wapama:magnets>
  <g pointer-events="fill" wapama:minimumSize="80 60" wapama:maximumSize="" >
    <rect id="border" wapama:resize="vertical horizontal" x="0" y="0" width="100" height="80" rx="10" ry="10" stroke="black" stroke-width="1" fill="none" />
    <rect id="taskrect" wapama:resize="vertical horizontal" x="2" y="2" width="96" height="76" rx="8" ry="8" stroke="black" stroke-width="1" fill="white" />
    	<text font-size="14" id="acttext" x="50" y="40" wapama:align="middle center" stroke="black"></text>
    	
 	<a id="u">
	 	<g id="b">
		 	<rect x="45" y="68" wapama:resize="vertical horizontal" width="10" height="10" fill="none" stroke="black" stroke-width="1" />
			<path wapama:resize="vertical horizontal" fill="none" stroke="black" d="m50 68 v10 m-5 -5 h10" stroke-width="1" />
		</g>
	</a>
	<g id="none"></g>
	<g id="loop">
		<path wapama:anchors="bottom" wapama:resize="vertical horizontal" fill="none" stroke="black" stroke-width="1" d="M34,76 L37,76 L37,73 M37,76 C26,64 51,64 40,76" />
	</g>
	<g id="multiple">
		<path wapama:anchors="bottom" wapama:resize="vertical horizontal" fill="none" stroke="black" d="m37 68 v8 M41 68 v8" stroke-width="2" />
	</g>
	<g id="adhoc">
		<path wapama:anchors="bottom" wapama:resize="vertical horizontal" fill="none" stroke="black" d="m58 73 c0 -4 4 -4 4 0 s4 4 4 0" stroke-width="1" />
	</g>
	<g id="compensation">
		<path wapama:anchors="bottom" wapama:resize="vertical horizontal" fill="black" stroke="black" d="M 28 72 L 32 68 L 32 76 L 28 72 L 28 68 L 24 72 L 28 76 L 28 72" stroke-width="1" />
	</g>
  </g>
</svg>