<?xml version="1.0" encoding="UTF-8" standalone="no"?>
<svg
   xmlns="http://www.w3.org/2000/svg"
   xmlns:svg="http://www.w3.org/2000/svg"
   xmlns:wapama="http://www.wapama.net/diagram"
   xmlns:xlink="http://www.w3.org/1999/xlink"
   width="292"
   height="252"
   version="1.0">
	
  <defs></defs>
  
  <wapama:magnets>
  	<wapama:magnet 
  		wapama:cx="0" 
  		wapama:cy="125" 
  		wapama:anchors="left" />
  	<wapama:magnet 
  		wapama:cx="145" 
  		wapama:cy="250" 
  		wapama:anchors="bottom" />
  	<wapama:magnet 
  		wapama:cx="290" 
  		wapama:cy="125" 
  		wapama:anchors="right" />
  	<wapama:magnet 
  		wapama:cx="145" 
  		wapama:cy="0" 
  		wapama:anchors="top" />
  	<wapama:magnet 
  		wapama:cx="145" 
  		wapama:cy="125" 
  		wapama:default="yes" />
  </wapama:magnets>
  
  <g 
  	pointer-events="fill" 
    wapama:minimumSize="50 40">
    <rect 
    	id="mainBody" 
    	wapama:resize="vertical horizontal" 
    	x="0" 
    	y="0" 
    	width="290" 
    	height="250" 
    	rx="10" 
    	ry="10" 
    	stroke="black" 
    	stroke-width="1" 
    	fill="white" /> 
    	
	<g id="documentation"
	   pointer-events="fill">

    	<rect 
    		x="266" 
    		y="226" 
    		width="16" 
    		height="16" 
    		stroke="black" 
    		stroke-width="1"
    		wapama:anchors="bottom right"
    		fill="none" />
    	<path 
    		d="	M 268 228 L 280 228
    			M 268 232 L 280 232
    			M 268 236 L 280 236
    			M 268 240 L 280 240" 
    		fill="none"
    		wapama:anchors="bottom right"
    		stroke="black" />
  	</g>
  		
     <text
       id="label"
	   x="45" 
	   y="20" 
	   wapama:anchors="top left"
	   style="font-family:Arial; font-size: 12pt; fill:black;"></text>
    <path  
    	wapama:anchors="top left" 
    	fill="none" 
    	stroke="black" 
    	stroke-width="1" 
	    d="M 10.668537,10.668537 L 40.668537,10.668537 L 40.668537,20.668537 L 10.668537,20.668537 L 10.668537,10.668537 z 
	    M 40.668537,30.668537 L 70.668537,30.668537 L 70.668537,40.668537 L 40.668537,40.668537 L 40.668537,30.668537 z 
	    M 10.668537,50.668537 L 40.668537,50.668537 L 40.668537,60.668537 L 10.668537,60.668537 L 10.668537,50.668537 z 
	    M 34.626402,21.085418 L 49.809774,30.63307" />
  </g>
</svg>
