<?xml version="1.0" encoding="UTF-8" standalone="no"?>
<svg
   xmlns="http://www.w3.org/2000/svg"
   xmlns:svg="http://www.w3.org/2000/svg"
   xmlns:wapama="http://www.wapama.net/diagram"
   xmlns:xlink="http://www.w3.org/1999/xlink"
   width="102"
   height="82"
   version="1.0">
	
  <defs></defs>
  
  <wapama:magnets>
  	<wapama:magnet 
  		wapama:cx="0" 
  		wapama:cy="40" 
  		wapama:anchors="left" />
  	<wapama:magnet 
  		wapama:cx="50" 
  		wapama:cy="80" 
  		wapama:anchors="bottom" />
  	<wapama:magnet 
  		wapama:cx="100" 
  		wapama:cy="40" 
  		wapama:anchors="right" />
  	<wapama:magnet 
  		wapama:cx="50" 
  		wapama:cy="0" 
  		wapama:anchors="top" />
  	<wapama:magnet 
  		wapama:cx="50" 
  		wapama:cy="40" 
  		wapama:default="yes" />
  </wapama:magnets>
  
  <g 
  	pointer-events="fill" 
    wapama:minimumSize="50 40">
    <rect 
    	id="mainBody" 
    	wapama:resize="vertical horizontal" 
    	x="0" 
    	y="0" 
    	width="100" 
    	height="80" 
    	rx="10" 
    	ry="10" 
    	stroke="black" 
    	stroke-width="1" 
    	fill="white" />
    
	<g id="documentation"
	   pointer-events="fill">
    	
    	<rect 
    		x="76" 
    		y="56" 
    		width="16" 
    		height="16" 
    		stroke="black" 
    		stroke-width="1"
    		wapama:anchors="bottom right"
    		fill="none" />
    	<path 
    		d="	M 78 58 L 90 58
    			M 78 62 L 90 62
    			M 78 66 L 90 66
    			M 78 70 L 90 70" 
    		fill="none"
    		wapama:anchors="bottom right"
    		stroke="black" />
  	</g>
  		
    <text
       id="label"
	   x="30" 
	   y="20" 
	   wapama:anchors="top left"
	   style="font-family:Arial; font-size: 10pt; fill:black;"></text>
    <path
       d="M 7.8938659,18.643234 C 5.2773374,14.03665 7.2055628,8.1109195 11.75609,5.5699145 C 16.87077,2.7138877 23.419094,4.8627314 26.203355,9.9193152 C 29.299246,15.541862 26.929565,22.713299 21.366778,25.740525 C 20.449292,26.239813 19.467809,26.620284 18.454001,26.871595"
	   wapama:anchors="top left"
       style="fill:none;fill-rule:evenodd;stroke:#000000;stroke-width:1px;stroke-linecap:butt;stroke-linejoin:miter;stroke-opacity:1" />
     <path
       d="M 6.31241,21.03338 L 8.93528,17.24202 L 11.71537,21.80334 L 6.31241,21.03338 z "
	   wapama:anchors="top left"
       style="fill:black;fill-rule:evenodd;stroke:#000000;stroke-width:1px;stroke-linecap:butt;stroke-linejoin:miter;stroke-opacity:1" />
  </g>
</svg>
